<?xml version="1.0" encoding="utf-8"?>
<!-- Generator: Adobe Illustrator 24.0.3, SVG Export Plug-In . SVG Version: 6.00 Build 0)  -->
<svg version="1.1" id="Layer_1" xmlns="http://www.w3.org/2000/svg" xmlns:xlink="http://www.w3.org/1999/xlink" x="0px" y="0px"
	 viewBox="0 0 820 600" style="enable-background:new 0 0 820 600;" xml:space="preserve">
<style type="text/css">
	.st0{fill:none;stroke:#000000;stroke-width:10;stroke-miterlimit:10;}
	.st1{fill:none;stroke:#000000;stroke-width:2;stroke-miterlimit:10;}
	.st2{fill:none;stroke:#000000;stroke-width:12;stroke-miterlimit:10;}
	.st3{fill:#FFFFFF;stroke:#000000;stroke-width:15;stroke-miterlimit:10;}
</style>
<g>
	
		<ellipse transform="matrix(0.9775 -0.2109 0.2109 0.9775 -18.9881 30.7996)" class="st1" cx="134.93" cy="104.44" rx="13.52" ry="13.48"/>
	
		<ellipse transform="matrix(0.9776 -0.2106 0.2106 0.9776 -20.6737 43.2218)" class="st1" cx="192.56" cy="118.66" rx="13.52" ry="13.48"/>
	
		<ellipse transform="matrix(0.9776 -0.2103 0.2103 0.9776 -22.3526 55.595)" class="st1" cx="250.2" cy="132.89" rx="13.51" ry="13.49"/>
	
		<ellipse transform="matrix(0.9777 -0.2099 0.2099 0.9777 -24.0208 67.8907)" class="st1" cx="307.84" cy="147.11" rx="13.51" ry="13.49"/>
	
		<ellipse transform="matrix(0.9779 -0.2093 0.2093 0.9779 -25.6702 80.0522)" class="st1" cx="365.47" cy="161.34" rx="13.51" ry="13.49"/>
	
		<ellipse transform="matrix(0.9781 -0.2082 0.2082 0.9781 -27.2819 91.9474)" class="st1" cx="423.11" cy="175.56" rx="13.51" ry="13.49"/>
	
		<ellipse transform="matrix(0.9785 -0.2061 0.2061 0.9785 -28.7986 103.1821)" class="st1" cx="480.75" cy="189.79" rx="13.5" ry="13.5"/>
	<ellipse transform="matrix(0.9798 -0.2 0.2 0.9798 -29.9276 111.8134)" class="st1" cx="538.38" cy="204.01" rx="13.5" ry="13.5"/>
	
		<ellipse transform="matrix(0.2859 -0.9583 0.9583 0.2859 216.4855 726.9835)" class="st1" cx="596.02" cy="218.24" rx="13.5" ry="13.5"/>
	
		<ellipse transform="matrix(0.9744 -0.225 0.225 0.9744 -35.5443 153.0372)" class="st1" cx="653.66" cy="232.46" rx="13.5" ry="13.5"/>
	
		<ellipse transform="matrix(0.9758 -0.2186 0.2186 0.9758 -36.7238 161.4589)" class="st1" cx="711.29" cy="246.69" rx="13.5" ry="13.5"/>
	
		<ellipse transform="matrix(0.9763 -0.2165 0.2165 0.9763 -38.2496 172.6487)" class="st1" cx="768.93" cy="260.91" rx="13.49" ry="13.51"/>
	
		<ellipse transform="matrix(0.9765 -0.2154 0.2154 0.9765 -39.8643 184.5208)" class="st1" cx="826.56" cy="275.14" rx="13.49" ry="13.51"/>
</g>
<g>
	
		<ellipse transform="matrix(0.9775 -0.2109 0.2109 0.9775 -5.4138 13.4889)" class="st1" cx="60.54" cy="32.13" rx="13.52" ry="13.48"/>
	
		<ellipse transform="matrix(0.9776 -0.2106 0.2106 0.9776 -7.1126 25.9321)" class="st1" cx="118.18" cy="46.36" rx="13.52" ry="13.48"/>
	
		<ellipse transform="matrix(0.9776 -0.2103 0.2103 0.9776 -8.8088 38.333)" class="st1" cx="175.82" cy="60.58" rx="13.51" ry="13.49"/>
	
		<ellipse transform="matrix(0.9777 -0.2099 0.2099 0.9777 -10.501 50.6671)" class="st1" cx="233.45" cy="74.81" rx="13.51" ry="13.49"/>
	
		<ellipse transform="matrix(0.9779 -0.2093 0.2093 0.9779 -12.186 62.8854)" class="st1" cx="291.09" cy="89.03" rx="13.51" ry="13.49"/>
	
		<ellipse transform="matrix(0.9781 -0.2082 0.2082 0.9781 -13.8566 74.8743)" class="st1" cx="348.73" cy="103.26" rx="13.51" ry="13.49"/>
	
		<ellipse transform="matrix(0.9785 -0.2061 0.2061 0.9785 -15.4903 86.2947)" class="st1" cx="406.36" cy="117.48" rx="13.5" ry="13.5"/>
	<ellipse transform="matrix(0.9798 -0.2 0.2 0.9798 -16.9676 95.4733)" class="st1" cx="464" cy="131.71" rx="13.5" ry="13.5"/>
	
		<ellipse transform="matrix(0.2859 -0.9583 0.9583 0.2859 232.6563 604.07)" class="st1" cx="521.63" cy="145.93" rx="13.5" ry="13.5"/>
	
		<ellipse transform="matrix(0.9744 -0.225 0.225 0.9744 -21.1823 134.4461)" class="st1" cx="579.27" cy="160.16" rx="13.5" ry="13.5"/>
	
		<ellipse transform="matrix(0.9758 -0.2186 0.2186 0.9758 -22.7163 143.4492)" class="st1" cx="636.91" cy="174.38" rx="13.5" ry="13.5"/>
	
		<ellipse transform="matrix(0.9763 -0.2165 0.2165 0.9763 -24.3603 154.8309)" class="st1" cx="694.54" cy="188.61" rx="13.49" ry="13.51"/>
	
		<ellipse transform="matrix(0.9765 -0.2154 0.2154 0.9765 -26.0343 166.799)" class="st1" cx="752.18" cy="202.83" rx="13.49" ry="13.51"/>
	
		<ellipse transform="matrix(0.9767 -0.2148 0.2148 0.9767 -27.7207 178.9998)" class="st1" cx="809.82" cy="217.06" rx="13.49" ry="13.51"/>
</g>
<g>
	
		<ellipse transform="matrix(0.8599 -0.5105 0.5105 0.8599 -263.5477 191.5441)" class="st1" cx="217.16" cy="575.87" rx="13.51" ry="13.49"/>
	
		<ellipse transform="matrix(0.8588 -0.5123 0.5123 0.8588 -239.0875 173.6794)" class="st1" cx="195.54" cy="520.59" rx="13.5" ry="13.5"/>
	
		<ellipse transform="matrix(0.8556 -0.5177 0.5177 0.8556 -215.7496 157.228)" class="st1" cx="173.92" cy="465.3" rx="13.5" ry="13.5"/>
	
		<ellipse transform="matrix(0.5101 -0.8601 0.8601 0.5101 -278.0375 331.8396)" class="st1" cx="152.3" cy="410.01" rx="13.5" ry="13.5"/>
	
		<ellipse transform="matrix(0.8685 -0.4956 0.4956 0.8685 -158.6266 111.4005)" class="st1" cx="130.68" cy="354.72" rx="13.5" ry="13.5"/>
	
		<ellipse transform="matrix(0.8653 -0.5013 0.5013 0.8653 -135.4132 95.017)" class="st1" cx="109.06" cy="299.43" rx="13.5" ry="13.5"/>
	
		<ellipse transform="matrix(0.8642 -0.5032 0.5032 0.8642 -110.9722 77.1601)" class="st1" cx="87.44" cy="244.14" rx="13.49" ry="13.51"/>
	
		<ellipse transform="matrix(0.8636 -0.5041 0.5041 0.8636 -86.2291 58.9369)" class="st1" cx="65.82" cy="188.85" rx="13.49" ry="13.51"/>
	
		<ellipse transform="matrix(0.8633 -0.5047 0.5047 0.8633 -61.3654 40.567)" class="st1" cx="44.2" cy="133.56" rx="13.49" ry="13.51"/>
	
		<ellipse transform="matrix(0.8631 -0.5051 0.5051 0.8631 -36.4414 22.1233)" class="st1" cx="22.58" cy="78.27" rx="13.49" ry="13.51"/>
	
		<ellipse transform="matrix(0.8629 -0.5054 0.5054 0.8629 -11.4825 3.637)" class="st1" cx="0.96" cy="22.98" rx="13.48" ry="13.52"/>
</g>
<g>
	
		<ellipse transform="matrix(0.0768 -0.997 0.997 0.0768 -327.5132 816.1049)" class="st1" cx="276.93" cy="584.91" rx="13.5" ry="13.5"/>
	
		<ellipse transform="matrix(0.0705 -0.9975 0.9975 0.0705 -290.9986 746.926)" class="st1" cx="255.31" cy="529.62" rx="13.5" ry="13.5"/>
	
		<ellipse transform="matrix(0.9128 -0.4084 0.4084 0.9128 -173.3471 136.8097)" class="st1" cx="233.69" cy="474.33" rx="13.5" ry="13.5"/>
	
		<ellipse transform="matrix(0.096 -0.9954 0.9954 0.096 -225.3952 589.8904)" class="st1" cx="212.07" cy="419.04" rx="13.5" ry="13.5"/>
	
		<ellipse transform="matrix(0.0895 -0.996 0.996 0.0895 -188.882 520.8837)" class="st1" cx="190.45" cy="363.75" rx="13.5" ry="13.5"/>
	
		<ellipse transform="matrix(0.0873 -0.9962 0.9962 0.0873 -153.1936 449.7093)" class="st1" cx="168.83" cy="308.46" rx="13.49" ry="13.51"/>
	
		<ellipse transform="matrix(0.0862 -0.9963 0.9963 0.0862 -117.7119 377.9994)" class="st1" cx="147.21" cy="253.17" rx="13.49" ry="13.51"/>
	
		<ellipse transform="matrix(0.0856 -0.9963 0.9963 0.0856 -82.3131 306.0756)" class="st1" cx="125.59" cy="197.88" rx="13.49" ry="13.51"/>
	
		<ellipse transform="matrix(0.0851 -0.9964 0.9964 0.0851 -46.9559 234.0446)" class="st1" cx="103.97" cy="142.59" rx="13.49" ry="13.51"/>
	
		<ellipse transform="matrix(0.0848 -0.9964 0.9964 0.0848 -11.6227 161.9518)" class="st1" cx="82.35" cy="87.3" rx="13.48" ry="13.52"/>
	
		<ellipse transform="matrix(0.0846 -0.9964 0.9964 0.0846 23.6953 89.8201)" class="st1" cx="60.73" cy="32.01" rx="13.48" ry="13.52"/>
</g>
</svg>
