<?xml version="1.0" encoding="utf-8"?>
<!-- Generator: Adobe Illustrator 24.0.3, SVG Export Plug-In . SVG Version: 6.00 Build 0)  -->
<svg version="1.1" id="Layer_1" xmlns="http://www.w3.org/2000/svg" xmlns:xlink="http://www.w3.org/1999/xlink" x="0px" y="0px"
	 viewBox="0 0 820 462" style="enable-background:new 0 0 820 462;" xml:space="preserve">
<style type="text/css">
	.st0{fill:none;stroke:#000000;stroke-width:10;stroke-miterlimit:10;}
	.st1{fill:none;stroke:#000000;stroke-width:2;stroke-miterlimit:10;}
	.st2{fill:none;stroke:#000000;stroke-width:12;stroke-miterlimit:10;}
	.st3{fill:#FFFFFF;stroke:#000000;stroke-width:15;stroke-miterlimit:10;}
</style>
<g>
	
		<ellipse transform="matrix(0.9775 -0.2109 0.2109 0.9775 -20.9466 27.1123)" class="st1" cx="116.66" cy="111.78" rx="13.52" ry="13.48"/>
	
		<ellipse transform="matrix(0.9776 -0.2106 0.2106 0.9776 -22.6296 39.5383)" class="st1" cx="174.3" cy="126" rx="13.52" ry="13.48"/>
	
		<ellipse transform="matrix(0.9776 -0.2103 0.2103 0.9776 -24.305 51.9167)" class="st1" cx="231.93" cy="140.23" rx="13.51" ry="13.49"/>
	
		<ellipse transform="matrix(0.9777 -0.2099 0.2099 0.9777 -25.9684 64.2196)" class="st1" cx="289.57" cy="154.45" rx="13.51" ry="13.49"/>
	
		<ellipse transform="matrix(0.9779 -0.2093 0.2093 0.9779 -27.6107 76.3916)" class="st1" cx="347.2" cy="168.68" rx="13.51" ry="13.49"/>
	
		<ellipse transform="matrix(0.9781 -0.2082 0.2082 0.9781 -29.2107 88.3042)" class="st1" cx="404.84" cy="182.9" rx="13.51" ry="13.49"/>
	
		<ellipse transform="matrix(0.9785 -0.2061 0.2061 0.9785 -30.7041 99.5735)" class="st1" cx="462.48" cy="197.13" rx="13.5" ry="13.5"/>
	<ellipse transform="matrix(0.9798 -0.2 0.2 0.9798 -31.765 108.3073)" class="st1" cx="520.11" cy="211.35" rx="13.5" ry="13.5"/>
	
		<ellipse transform="matrix(0.2859 -0.9583 0.9583 0.2859 196.4055 714.7181)" class="st1" cx="577.75" cy="225.58" rx="13.5" ry="13.5"/>
	
		<ellipse transform="matrix(0.9744 -0.225 0.225 0.9744 -37.6644 149.1147)" class="st1" cx="635.39" cy="239.8" rx="13.5" ry="13.5"/>
	
		<ellipse transform="matrix(0.9758 -0.2186 0.2186 0.9758 -38.7703 157.6426)" class="st1" cx="693.02" cy="254.03" rx="13.5" ry="13.5"/>
	
		<ellipse transform="matrix(0.9763 -0.2165 0.2165 0.9763 -40.2719 168.8677)" class="st1" cx="750.66" cy="268.25" rx="13.49" ry="13.51"/>
	
		<ellipse transform="matrix(0.9765 -0.2154 0.2154 0.9765 -41.8745 180.7575)" class="st1" cx="808.3" cy="282.48" rx="13.49" ry="13.51"/>
</g>
<g>
	
		<ellipse transform="matrix(0.9775 -0.2109 0.2109 0.9775 -7.3723 9.8016)" class="st1" cx="42.27" cy="39.47" rx="13.52" ry="13.48"/>
	
		<ellipse transform="matrix(0.9776 -0.2106 0.2106 0.9776 -9.0685 22.2487)" class="st1" cx="99.91" cy="53.7" rx="13.52" ry="13.48"/>
	
		<ellipse transform="matrix(0.9776 -0.2103 0.2103 0.9776 -10.7612 34.6547)" class="st1" cx="157.55" cy="67.92" rx="13.51" ry="13.49"/>
	
		<ellipse transform="matrix(0.9777 -0.2099 0.2099 0.9777 -12.4486 46.9959)" class="st1" cx="215.18" cy="82.15" rx="13.51" ry="13.49"/>
	
		<ellipse transform="matrix(0.9779 -0.2093 0.2093 0.9779 -14.1265 59.2248)" class="st1" cx="272.82" cy="96.37" rx="13.51" ry="13.49"/>
	
		<ellipse transform="matrix(0.9781 -0.2082 0.2082 0.9781 -15.7854 71.2312)" class="st1" cx="330.46" cy="110.6" rx="13.51" ry="13.49"/>
	
		<ellipse transform="matrix(0.9785 -0.2061 0.2061 0.9785 -17.3959 82.6861)" class="st1" cx="388.09" cy="124.82" rx="13.5" ry="13.5"/>
	<ellipse transform="matrix(0.9798 -0.2 0.2 0.9798 -18.8051 91.9672)" class="st1" cx="445.73" cy="139.05" rx="13.5" ry="13.5"/>
	
		<ellipse transform="matrix(0.2859 -0.9583 0.9583 0.2859 212.5764 591.8047)" class="st1" cx="503.37" cy="153.27" rx="13.5" ry="13.5"/>
	<ellipse transform="matrix(0.9744 -0.225 0.225 0.9744 -23.3024 130.5236)" class="st1" cx="561" cy="167.5" rx="13.5" ry="13.5"/>
	
		<ellipse transform="matrix(0.9758 -0.2186 0.2186 0.9758 -24.7628 139.6329)" class="st1" cx="618.64" cy="181.72" rx="13.5" ry="13.5"/>
	
		<ellipse transform="matrix(0.9763 -0.2165 0.2165 0.9763 -26.3826 151.0499)" class="st1" cx="676.27" cy="195.95" rx="13.49" ry="13.51"/>
	
		<ellipse transform="matrix(0.9765 -0.2154 0.2154 0.9765 -28.0445 163.0357)" class="st1" cx="733.91" cy="210.17" rx="13.49" ry="13.51"/>
	
		<ellipse transform="matrix(0.9767 -0.2148 0.2148 0.9767 -29.7236 175.2471)" class="st1" cx="791.55" cy="224.4" rx="13.49" ry="13.51"/>
</g>
<g>
	
		<ellipse transform="matrix(0.8556 -0.5177 0.5177 0.8556 -222.1877 148.8306)" class="st1" cx="155.65" cy="472.64" rx="13.5" ry="13.5"/>
	
		<ellipse transform="matrix(0.5101 -0.8601 0.8601 0.5101 -293.3002 319.7218)" class="st1" cx="134.03" cy="417.35" rx="13.5" ry="13.5"/>
	
		<ellipse transform="matrix(0.8685 -0.4956 0.4956 0.8685 -164.6663 103.3107)" class="st1" cx="112.41" cy="362.06" rx="13.5" ry="13.5"/>
	
		<ellipse transform="matrix(0.8653 -0.5013 0.5013 0.8653 -141.5544 86.8473)" class="st1" cx="90.79" cy="306.77" rx="13.5" ry="13.5"/>
	
		<ellipse transform="matrix(0.8642 -0.5032 0.5032 0.8642 -117.1472 68.964)" class="st1" cx="69.17" cy="251.48" rx="13.49" ry="13.51"/>
	
		<ellipse transform="matrix(0.8636 -0.5041 0.5041 0.8636 -92.4209 50.7277)" class="st1" cx="47.55" cy="196.19" rx="13.49" ry="13.51"/>
	
		<ellipse transform="matrix(0.8633 -0.5047 0.5047 0.8633 -67.5675 32.3498)" class="st1" cx="25.93" cy="140.9" rx="13.49" ry="13.51"/>
	
		<ellipse transform="matrix(0.8631 -0.5051 0.5051 0.8631 -42.6503 13.9008)" class="st1" cx="4.31" cy="85.61" rx="13.49" ry="13.51"/>
</g>
<g>
	
		<ellipse transform="matrix(0.096 -0.9954 0.9954 0.096 -249.2166 578.3407)" class="st1" cx="193.8" cy="426.38" rx="13.5" ry="13.5"/>
	
		<ellipse transform="matrix(0.0895 -0.996 0.996 0.0895 -212.8273 509.3708)" class="st1" cx="172.18" cy="371.09" rx="13.5" ry="13.5"/>
	
		<ellipse transform="matrix(0.0873 -0.9962 0.9962 0.0873 -177.1799 438.2088)" class="st1" cx="150.56" cy="315.8" rx="13.49" ry="13.51"/>
	
		<ellipse transform="matrix(0.0862 -0.9963 0.9963 0.0862 -141.7186 366.5051)" class="st1" cx="128.94" cy="260.51" rx="13.49" ry="13.51"/>
	
		<ellipse transform="matrix(0.0856 -0.9963 0.9963 0.0856 -106.3321 294.5851)" class="st1" cx="107.32" cy="205.22" rx="13.49" ry="13.51"/>
	
		<ellipse transform="matrix(0.0851 -0.9964 0.9964 0.0851 -70.9833 222.5566)" class="st1" cx="85.7" cy="149.93" rx="13.49" ry="13.51"/>
	
		<ellipse transform="matrix(0.0848 -0.9964 0.9964 0.0848 -35.6561 150.4657)" class="st1" cx="64.08" cy="94.64" rx="13.48" ry="13.52"/>
	
		<ellipse transform="matrix(0.0846 -0.9964 0.9964 0.0846 -0.3426 78.3353)" class="st1" cx="42.46" cy="39.35" rx="13.48" ry="13.52"/>
</g>
</svg>
