<?xml version="1.0" encoding="utf-8"?>
<!-- Generator: Adobe Illustrator 24.0.3, SVG Export Plug-In . SVG Version: 6.00 Build 0)  -->
<svg version="1.1" id="Layer_1" xmlns="http://www.w3.org/2000/svg" xmlns:xlink="http://www.w3.org/1999/xlink" x="0px" y="0px"
	 viewBox="0 0 2592 6912" style="enable-background:new 0 0 2592 6912;" xml:space="preserve">
<style type="text/css">
	.st0{fill:none;stroke:#000000;stroke-width:10;stroke-miterlimit:10;}
	.st1{fill:none;stroke:#000000;stroke-width:12;stroke-miterlimit:10;}
	.st2{fill:#FFFFFF;stroke:#000000;stroke-width:15;stroke-miterlimit:10;}
</style>
<g>
	
		<ellipse transform="matrix(0.1491 -0.9888 0.9888 0.1491 810.5273 1502.145)" class="st0" cx="1278.12" cy="280.1" rx="53.93" ry="54.07"/>
	
		<ellipse transform="matrix(0.1494 -0.9888 0.9888 0.1494 766.0749 1808.5956)" class="st0" cx="1434.22" cy="459.05" rx="53.94" ry="54.06"/>
	
		<ellipse transform="matrix(0.1497 -0.9887 0.9887 0.1497 721.4498 2114.8848)" class="st0" cx="1590.31" cy="637.99" rx="53.95" ry="54.05"/>
	
		<ellipse transform="matrix(0.1501 -0.9887 0.9887 0.1501 676.5506 2420.9182)" class="st0" cx="1746.41" cy="816.94" rx="53.96" ry="54.04"/>
	
		<ellipse transform="matrix(0.1508 -0.9886 0.9886 0.1508 631.1752 2726.5085)" class="st0" cx="1902.51" cy="995.89" rx="53.96" ry="54.04"/>
	
		<ellipse transform="matrix(0.1518 -0.9884 0.9884 0.1518 584.8539 3031.2188)" class="st0" cx="2058.61" cy="1174.84" rx="53.97" ry="54.03"/>
	
		<ellipse transform="matrix(0.1539 -0.9881 0.9881 0.1539 536.1879 3333.7412)" class="st0" cx="2214.71" cy="1353.78" rx="53.98" ry="54.02"/>
	
		<ellipse transform="matrix(0.1601 -0.9871 0.9871 0.1601 478.3071 3627.5903)" class="st0" cx="2370.8" cy="1532.73" rx="53.99" ry="54.01"/>
	
		<ellipse transform="matrix(0.6069 -0.7948 0.7948 0.6069 -367.0398 2681.3088)" class="st0" cx="2526.9" cy="1711.68" rx="54" ry="54"/>
</g>
<g>
	
		<ellipse transform="matrix(0.705 -0.7092 0.7092 0.705 178.0246 989.1326)" class="st0" cx="1278" cy="280.57" rx="53.93" ry="54.07"/>
	
		<ellipse transform="matrix(0.705 -0.7092 0.7092 0.705 -3.9867 1001.1658)" class="st0" cx="1201.5" cy="505.38" rx="53.94" ry="54.06"/>
	
		<ellipse transform="matrix(0.705 -0.7092 0.7092 0.705 -185.9887 1013.1883)" class="st0" cx="1125" cy="730.18" rx="53.95" ry="54.05"/>
	
		<ellipse transform="matrix(0.7051 -0.7091 0.7091 0.7051 -367.9792 1025.1953)" class="st0" cx="1048.5" cy="954.98" rx="53.96" ry="54.04"/>
	
		<ellipse transform="matrix(0.7051 -0.7091 0.7091 0.7051 -549.953 1037.1772)" class="st0" cx="972" cy="1179.79" rx="53.96" ry="54.04"/>
	
		<ellipse transform="matrix(0.7051 -0.7091 0.7091 0.7051 -731.8986 1049.1113)" class="st0" cx="895.5" cy="1404.59" rx="53.97" ry="54.03"/>
	
		<ellipse transform="matrix(0.7052 -0.709 0.709 0.7052 -913.7814 1060.9301)" class="st0" cx="819" cy="1629.39" rx="53.98" ry="54.02"/>
	
		<ellipse transform="matrix(0.7055 -0.7087 0.7087 0.7055 -1095.4304 1072.3004)" class="st0" cx="742.5" cy="1854.2" rx="53.99" ry="54.01"/>
	<ellipse transform="matrix(0.7365 -0.6764 0.6764 0.7365 -1230.7499 998.1968)" class="st0" cx="666" cy="2079" rx="54" ry="54"/>
	
		<ellipse transform="matrix(0.7045 -0.7097 0.7097 0.7045 -1460.8141 1099.1328)" class="st0" cx="589.5" cy="2303.8" rx="54.01" ry="53.99"/>
	
		<ellipse transform="matrix(0.7048 -0.7094 0.7094 0.7048 -1642.4326 1110.4634)" class="st0" cx="513" cy="2528.61" rx="54.02" ry="53.98"/>
	
		<ellipse transform="matrix(0.7049 -0.7093 0.7093 0.7049 -1824.2876 1122.2638)" class="st0" cx="436.5" cy="2753.41" rx="54.03" ry="53.97"/>
	
		<ellipse transform="matrix(0.7049 -0.7093 0.7093 0.7049 -2006.1974 1134.1786)" class="st0" cx="360" cy="2978.21" rx="54.04" ry="53.96"/>
	
		<ellipse transform="matrix(0.7049 -0.7093 0.7093 0.7049 -2188.126 1146.1372)" class="st0" cx="283.5" cy="3203.02" rx="54.04" ry="53.96"/>
	
		<ellipse transform="matrix(0.705 -0.7092 0.7092 0.705 -2370.0615 1158.1166)" class="st0" cx="207" cy="3427.82" rx="54.05" ry="53.95"/>
	
		<ellipse transform="matrix(0.705 -0.7092 0.7092 0.705 -2551.9988 1170.1068)" class="st0" cx="130.5" cy="3652.62" rx="54.06" ry="53.94"/>
	
		<ellipse transform="matrix(0.705 -0.7092 0.7092 0.705 -2733.9353 1182.1028)" class="st0" cx="54" cy="3877.43" rx="54.07" ry="53.93"/>
</g>
<g>
	
		<ellipse transform="matrix(0.7113 -0.7029 0.7029 0.7113 -100.2125 1150.0885)" class="st0" cx="1350" cy="697.04" rx="54.07" ry="53.93"/>
	
		<ellipse transform="matrix(0.7112 -0.703 0.703 0.7112 -280.9098 1159.911)" class="st0" cx="1271.25" cy="921.85" rx="54.07" ry="53.93"/>
	
		<ellipse transform="matrix(0.7111 -0.7031 0.7031 0.7111 -461.684 1169.7703)" class="st0" cx="1192.5" cy="1146.65" rx="54.07" ry="53.93"/>
	
		<ellipse transform="matrix(0.7109 -0.7032 0.7032 0.7109 -642.5353 1179.6664)" class="st0" cx="1113.75" cy="1371.45" rx="54.07" ry="53.93"/>
	
		<ellipse transform="matrix(0.7108 -0.7034 0.7034 0.7108 -823.4637 1189.5994)" class="st0" cx="1035" cy="1596.26" rx="54.07" ry="53.93"/>
	
		<ellipse transform="matrix(0.7107 -0.7035 0.7035 0.7107 -1004.4693 1199.5693)" class="st0" cx="956.25" cy="1821.06" rx="54.07" ry="53.93"/>
	
		<ellipse transform="matrix(0.7106 -0.7036 0.7036 0.7106 -1185.5521 1209.5763)" class="st0" cx="877.5" cy="2045.86" rx="54.07" ry="53.93"/>
	
		<ellipse transform="matrix(0.7104 -0.7038 0.7038 0.7104 -1366.7124 1219.6204)" class="st0" cx="798.75" cy="2270.67" rx="54.07" ry="53.93"/>
	
		<ellipse transform="matrix(0.7103 -0.7039 0.7039 0.7103 -1547.9502 1229.7015)" class="st0" cx="720" cy="2495.47" rx="54.07" ry="53.93"/>
	
		<ellipse transform="matrix(0.7102 -0.704 0.704 0.7102 -1729.2656 1239.8199)" class="st0" cx="641.25" cy="2720.27" rx="54.07" ry="53.93"/>
	
		<ellipse transform="matrix(0.7101 -0.7041 0.7041 0.7101 -1910.6587 1249.9757)" class="st0" cx="562.5" cy="2945.08" rx="54.07" ry="53.93"/>
	
		<ellipse transform="matrix(0.7099 -0.7043 0.7043 0.7099 -2092.1294 1260.1689)" class="st0" cx="483.75" cy="3169.88" rx="54.07" ry="53.93"/>
	
		<ellipse transform="matrix(0.7098 -0.7044 0.7044 0.7098 -2273.678 1270.3995)" class="st0" cx="405" cy="3394.68" rx="54.07" ry="53.93"/>
	
		<ellipse transform="matrix(0.7097 -0.7045 0.7045 0.7097 -2455.3047 1280.6676)" class="st0" cx="326.25" cy="3619.49" rx="54.07" ry="53.93"/>
	
		<ellipse transform="matrix(0.7096 -0.7047 0.7047 0.7096 -2637.0093 1290.9733)" class="st0" cx="247.5" cy="3844.29" rx="54.07" ry="53.93"/>
	
		<ellipse transform="matrix(0.7094 -0.7048 0.7048 0.7094 -2818.7922 1301.3167)" class="st0" cx="168.75" cy="4069.09" rx="54.07" ry="53.93"/>
	
		<ellipse transform="matrix(0.7093 -0.7049 0.7049 0.7093 -3000.6533 1311.6978)" class="st0" cx="90" cy="4293.9" rx="54.07" ry="53.93"/>
</g>
<g>
	
		<ellipse transform="matrix(0.3886 -0.9214 0.9214 0.3886 183.6222 1670.276)" class="st0" cx="1350.33" cy="696.78" rx="53.93" ry="54.07"/>
	
		<ellipse transform="matrix(0.3888 -0.9213 0.9213 0.3888 113.9301 1923.1927)" class="st0" cx="1506.43" cy="875.73" rx="53.94" ry="54.06"/>
	
		<ellipse transform="matrix(0.3891 -0.9212 0.9212 0.3891 44.1179 2175.8794)" class="st0" cx="1662.53" cy="1054.68" rx="53.95" ry="54.05"/>
	
		<ellipse transform="matrix(0.3895 -0.921 0.921 0.3895 -25.8853 2428.2009)" class="st0" cx="1818.62" cy="1233.63" rx="53.96" ry="54.04"/>
	
		<ellipse transform="matrix(0.3901 -0.9208 0.9208 0.3901 -96.2202 2679.8887)" class="st0" cx="1974.72" cy="1412.57" rx="53.96" ry="54.04"/>
	
		<ellipse transform="matrix(0.391 -0.9204 0.9204 0.391 -167.2138 2930.3164)" class="st0" cx="2130.82" cy="1591.52" rx="53.97" ry="54.03"/>
	
		<ellipse transform="matrix(0.393 -0.9195 0.9195 0.393 -239.8376 3177.6145)" class="st0" cx="2286.92" cy="1770.47" rx="53.98" ry="54.02"/>
	
		<ellipse transform="matrix(0.3987 -0.9171 0.9171 0.3987 -318.8389 3412.5327)" class="st0" cx="2443.02" cy="1949.42" rx="53.99" ry="54.01"/>
	
		<ellipse transform="matrix(0.7842 -0.6205 0.6205 0.7842 -759.775 2071.8628)" class="st0" cx="2599.11" cy="2128.36" rx="54" ry="54"/>
</g>
</svg>
